<svg width="36" height="58" viewBox="0 0 36 58" fill="none" xmlns="http://www.w3.org/2000/svg">
<g clip-path="url(#clip0)">
<path fill-rule="evenodd" clip-rule="evenodd" d="M7.229 48.4893C7.31487 46.2603 17.6628 23.147 17.2207 20.6215C17.1031 19.9502 21.1876 17.0917 22.456 14.7643C24.1299 11.6923 24.5743 10.2438 24.5087 10.2242C21.3047 9.26845 20.5805 12.6832 20.5768 12.6553C19.4648 4.62207 23.273 6.87335 23.2655 6.85578C20.6857 0.873151 16.5266 11.5818 16.5266 11.5818C16.5266 11.5818 12.2437 -5.70964 24.8556 1.96423C33.3312 7.12086 21.8295 19.42 21.8199 19.7144C21.7477 21.9449 22.0801 49.093 22.0801 49.093C22.0801 49.093 7.22582 48.5663 7.229 48.4893Z" fill="#0B8D3A"/>
<path fill-rule="evenodd" clip-rule="evenodd" d="M21 20.6283C19.268 24.1558 23.8747 24.3546 16.2655 38.1022C16.2566 38.1183 17.4382 34.4883 18.1771 31.0499C18.6443 28.8757 18.5625 27.1838 19.0734 25.2504C20.1243 21.2733 19.6291 19.116 17.1933 19.8591C-6.72441 27.1548 -6.38384 64.5403 22.6006 57.0015C44.1088 51.4072 33.268 18.3372 33.268 18.3372C33.268 18.3372 22.8466 16.8679 21 20.6283Z" fill="#7D2E07"/>
<path fill-rule="evenodd" clip-rule="evenodd" d="M8.78995 26.9559C9.31382 26.4006 12.9867 23.1338 15.6084 25.2697C18.104 27.3033 15.1869 30.6155 14.6708 31.1925C14.1547 31.7696 10.7805 34.6676 8.0663 33.0598C4.89531 31.1814 8.26608 27.5116 8.78995 26.9559Z" fill="#AA4D1E"/>
<path fill-rule="evenodd" clip-rule="evenodd" d="M6.5238 43.6482C6.5238 43.6482 15.3831 51.3259 24.9573 42.4871C31.8874 36.0897 27.344 23.6408 27.4486 23.2396C27.5093 23.007 27.7354 23.0825 27.8051 23.2404C30.3782 29.0514 32.8284 42.1537 25.7697 47.1478C13.6172 55.7458 6.5238 43.6482 6.5238 43.6482Z" fill="#50210A"/>
</g>
<defs>
<clipPath id="clip0">
</clipPath>
</defs>
</svg>
